<?xml version="1.0" encoding="UTF-8"?>
<svg xmlns="http://www.w3.org/2000/svg" viewBox="0 0 279.0 303.0" width="279.0" height="303.0">
  <g transform="scale(0.25)">
    <path fill="transparent" stroke="#00f5ff" stroke-width="8" fill-rule="evenodd" d="M 726.00 213.00 C 722.80 213.27 710.60 214.47 705.00 215.00 C 699.40 215.53 689.60 216.33 684.00 217.00 C 678.40 217.67 668.60 218.67 663.00 220.00 C 657.40 221.33 647.60 225.00 642.00 227.00 C 636.40 229.00 626.60 232.60 621.00 235.00 C 615.40 237.40 605.60 241.93 600.00 245.00 C 594.40 248.07 584.60 254.27 579.00 258.00 C 573.40 261.73 563.60 268.60 558.00 273.00 C 552.40 277.40 542.33 285.80 537.00 291.00 C 531.67 296.20 522.40 306.40 518.00 312.00 C 513.60 317.60 507.07 327.40 504.00 333.00 C 500.93 338.60 497.00 348.40 495.00 354.00 C 493.00 359.60 490.07 369.40 489.00 375.00 C 487.93 380.60 487.53 390.40 487.00 396.00 C 486.47 401.60 485.40 411.40 485.00 417.00 C 484.60 422.60 484.27 432.40 484.00 438.00 C 483.73 443.60 483.13 453.40 483.00 459.00 C 482.87 464.60 483.00 474.40 483.00 480.00 C 483.00 485.60 483.00 495.40 483.00 501.00 C 483.00 506.60 483.00 516.40 483.00 522.00 C 483.00 527.60 483.00 537.40 483.00 543.00 C 483.00 548.60 483.00 558.40 483.00 564.00 C 483.00 569.60 483.00 579.40 483.00 585.00 C 483.00 590.60 483.00 600.40 483.00 606.00 C 483.00 611.60 483.00 621.40 483.00 627.00 C 483.00 632.60 483.00 642.40 483.00 648.00 C 483.00 653.60 483.00 663.40 483.00 669.00 C 483.00 674.60 483.00 684.40 483.00 690.00 C 483.00 695.60 483.00 705.40 483.00 711.00 C 483.00 716.60 483.00 726.40 483.00 732.00 C 483.00 737.60 483.00 747.40 483.00 753.00 C 483.00 758.60 483.00 768.40 483.00 774.00 C 483.00 779.60 484.07 790.07 483.00 795.00 C 481.93 799.93 478.87 808.87 475.00 811.00 C 471.13 813.13 459.60 811.13 454.00 811.00 C 448.40 810.87 438.60 810.27 433.00 810.00 C 427.40 809.73 417.60 809.27 412.00 809.00 C 406.40 808.73 396.60 808.53 391.00 808.00 C 385.40 807.47 375.60 805.67 370.00 805.00 C 364.40 804.33 354.60 803.80 349.00 803.00 C 343.40 802.20 333.60 800.47 328.00 799.00 C 322.40 797.53 312.60 794.13 307.00 792.00 C 301.40 789.87 291.60 785.93 286.00 783.00 C 280.40 780.07 270.60 774.13 265.00 770.00 C 259.40 765.87 249.20 757.20 244.00 752.00 C 238.80 746.80 230.27 736.60 226.00 731.00 C 221.73 725.40 215.20 715.60 212.00 710.00 C 208.80 704.40 204.27 694.60 202.00 689.00 C 199.73 683.40 196.60 673.60 195.00 668.00 C 193.40 662.40 191.07 652.60 190.00 647.00 C 188.93 641.40 187.53 631.60 187.00 626.00 C 186.47 620.40 186.13 610.60 186.00 605.00 C 185.87 599.40 186.00 589.60 186.00 584.00 C 186.00 578.40 186.00 568.60 186.00 563.00 C 186.00 557.40 186.00 547.60 186.00 542.00 C 186.00 536.40 185.87 526.60 186.00 521.00 C 186.13 515.40 186.73 505.60 187.00 500.00 C 187.27 494.40 187.47 484.60 188.00 479.00 C 188.53 473.40 190.20 463.60 191.00 458.00 C 191.80 452.40 193.07 442.60 194.00 437.00 C 194.93 431.40 196.80 421.60 198.00 416.00 C 199.20 410.40 201.53 400.60 203.00 395.00 C 204.47 389.40 207.13 379.60 209.00 374.00 C 210.87 368.40 214.33 358.60 217.00 353.00 C 219.67 347.40 225.27 337.60 229.00 332.00 C 232.73 326.40 240.20 316.33 245.00 311.00 C 249.80 305.67 259.53 296.40 265.00 292.00 C 270.47 287.60 280.40 281.33 286.00 278.00 C 291.60 274.67 301.40 269.53 307.00 267.00 C 312.60 264.47 322.40 260.73 328.00 259.00 C 333.60 257.27 344.07 255.87 349.00 254.00 C 353.93 252.13 362.87 249.00 365.00 245.00 C 367.13 241.00 367.00 227.73 365.00 224.00 C 363.00 220.27 354.80 217.67 350.00 217.00 C 345.20 216.33 334.60 218.33 329.00 219.00 C 323.40 219.67 313.60 220.93 308.00 222.00 C 302.40 223.07 292.60 225.67 287.00 227.00 C 281.40 228.33 271.60 230.40 266.00 232.00 C 260.40 233.60 250.60 237.27 245.00 239.00 C 239.40 240.73 229.60 242.87 224.00 245.00 C 218.40 247.13 208.60 252.33 203.00 255.00 C 197.40 257.67 187.60 262.07 182.00 265.00 C 176.40 267.93 166.60 273.40 161.00 277.00 C 155.40 280.60 145.60 287.47 140.00 292.00 C 134.40 296.53 124.07 305.67 119.00 311.00 C 113.93 316.33 106.00 326.40 102.00 332.00 C 98.00 337.60 92.20 347.40 89.00 353.00 C 85.80 358.60 80.53 368.40 78.00 374.00 C 75.47 379.60 72.00 389.40 70.00 395.00 C 68.00 400.60 64.73 410.40 63.00 416.00 C 61.27 421.60 58.33 431.40 57.00 437.00 C 55.67 442.60 53.93 452.40 53.00 458.00 C 52.07 463.60 50.67 473.40 50.00 479.00 C 49.33 484.60 48.40 494.40 48.00 500.00 C 47.60 505.60 47.13 515.40 47.00 521.00 C 46.87 526.60 46.87 536.40 47.00 542.00 C 47.13 547.60 47.60 557.40 48.00 563.00 C 48.40 568.60 49.47 578.40 50.00 584.00 C 50.53 589.60 51.20 599.40 52.00 605.00 C 52.80 610.60 54.67 620.40 56.00 626.00 C 57.33 631.60 60.40 641.40 62.00 647.00 C 63.60 652.60 66.00 662.40 68.00 668.00 C 70.00 673.60 74.33 683.40 77.00 689.00 C 79.67 694.60 84.67 704.40 88.00 710.00 C 91.33 715.60 97.87 725.40 102.00 731.00 C 106.13 736.60 114.07 746.53 119.00 752.00 C 123.93 757.47 133.53 767.20 139.00 772.00 C 144.47 776.80 154.40 784.00 160.00 788.00 C 165.60 792.00 175.40 798.67 181.00 802.00 C 186.60 805.33 196.40 810.07 202.00 813.00 C 207.60 815.93 217.40 821.33 223.00 824.00 C 228.60 826.67 238.40 830.87 244.00 833.00 C 249.60 835.13 259.40 838.13 265.00 840.00 C 270.60 841.87 280.40 845.53 286.00 847.00 C 291.60 848.47 301.40 849.93 307.00 851.00 C 312.60 852.07 322.40 854.07 328.00 855.00 C 333.60 855.93 343.40 857.33 349.00 858.00 C 354.60 858.67 364.40 859.47 370.00 860.00 C 375.60 860.53 385.40 861.73 391.00 862.00 C 396.60 862.27 406.40 862.00 412.00 862.00 C 417.60 862.00 427.40 862.00 433.00 862.00 C 438.60 862.00 448.40 862.00 454.00 862.00 C 459.60 862.00 471.13 859.87 475.00 862.00 C 478.87 864.13 481.93 873.07 483.00 878.00 C 484.07 882.93 483.00 893.40 483.00 899.00 C 483.00 904.60 483.00 914.40 483.00 920.00 C 483.00 925.60 483.00 935.40 483.00 941.00 C 483.00 946.60 483.00 956.40 483.00 962.00 C 483.00 967.60 483.00 977.40 483.00 983.00 C 483.00 988.60 483.00 998.40 483.00 1004.00 C 483.00 1009.60 483.00 1019.40 483.00 1025.00 C 483.00 1030.60 483.00 1040.40 483.00 1046.00 C 483.00 1051.60 483.00 1061.40 483.00 1067.00 C 483.00 1072.60 482.47 1082.80 483.00 1088.00 C 483.53 1093.20 483.67 1103.60 487.00 1106.00 C 490.33 1108.40 502.40 1106.00 508.00 1106.00 C 513.60 1106.00 523.40 1106.00 529.00 1106.00 C 534.60 1106.00 544.40 1106.00 550.00 1106.00 C 555.60 1106.00 565.40 1106.00 571.00 1106.00 C 576.60 1106.00 586.40 1106.00 592.00 1106.00 C 597.60 1106.00 609.93 1108.67 613.00 1106.00 C 616.07 1103.33 614.73 1091.47 615.00 1086.00 C 615.27 1080.53 615.00 1070.60 615.00 1065.00 C 615.00 1059.40 615.00 1049.60 615.00 1044.00 C 615.00 1038.40 615.00 1028.60 615.00 1023.00 C 615.00 1017.40 615.00 1007.60 615.00 1002.00 C 615.00 996.40 615.00 986.60 615.00 981.00 C 615.00 975.40 615.00 965.60 615.00 960.00 C 615.00 954.40 615.00 944.60 615.00 939.00 C 615.00 933.40 615.00 923.60 615.00 918.00 C 615.00 912.40 615.00 902.60 615.00 897.00 C 615.00 891.40 613.80 880.80 615.00 876.00 C 616.20 871.20 620.00 863.00 624.00 861.00 C 628.00 859.00 639.40 861.00 645.00 861.00 C 650.60 861.00 660.40 861.00 666.00 861.00 C 671.60 861.00 681.40 861.13 687.00 861.00 C 692.60 860.87 702.40 860.27 708.00 860.00 C 713.60 859.73 723.40 859.53 729.00 859.00 C 734.60 858.47 744.40 856.80 750.00 856.00 C 755.60 855.20 765.40 853.93 771.00 853.00 C 776.60 852.07 786.40 850.20 792.00 849.00 C 797.60 847.80 807.40 845.47 813.00 844.00 C 818.60 842.53 828.40 839.73 834.00 838.00 C 839.60 836.27 849.40 833.13 855.00 831.00 C 860.60 828.87 870.40 824.67 876.00 822.00 C 881.60 819.33 891.40 814.07 897.00 811.00 C 902.60 807.93 912.40 802.33 918.00 799.00 C 923.60 795.67 933.40 790.00 939.00 786.00 C 944.60 782.00 954.53 774.07 960.00 769.00 C 965.47 763.93 975.20 753.60 980.00 748.00 C 984.80 742.40 992.13 732.60 996.00 727.00 C 999.87 721.40 1005.80 711.60 1009.00 706.00 C 1012.20 700.40 1017.47 690.60 1020.00 685.00 C 1022.53 679.40 1026.00 669.60 1028.00 664.00 C 1030.00 658.40 1033.40 648.60 1035.00 643.00 C 1036.60 637.40 1038.67 627.60 1040.00 622.00 C 1041.33 616.40 1043.93 606.60 1045.00 601.00 C 1046.07 595.40 1047.33 585.60 1048.00 580.00 C 1048.67 574.40 1049.60 564.60 1050.00 559.00 C 1050.40 553.40 1050.87 543.60 1051.00 538.00 C 1051.13 532.40 1051.13 522.60 1051.00 517.00 C 1050.87 511.40 1050.40 501.60 1050.00 496.00 C 1049.60 490.40 1048.80 480.60 1048.00 475.00 C 1047.20 469.40 1045.07 459.60 1044.00 454.00 C 1042.93 448.40 1041.20 438.60 1040.00 433.00 C 1038.80 427.40 1036.60 417.60 1035.00 412.00 C 1033.40 406.40 1030.00 396.60 1028.00 391.00 C 1026.00 385.40 1022.40 375.60 1020.00 370.00 C 1017.60 364.40 1013.07 354.60 1010.00 349.00 C 1006.93 343.40 1000.87 333.60 997.00 328.00 C 993.13 322.40 985.93 312.47 981.00 307.00 C 976.07 301.53 965.60 291.93 960.00 287.00 C 954.40 282.07 944.60 274.00 939.00 270.00 C 933.40 266.00 923.60 260.20 918.00 257.00 C 912.40 253.80 902.60 248.53 897.00 246.00 C 891.40 243.47 881.60 240.00 876.00 238.00 C 870.40 236.00 860.60 232.73 855.00 231.00 C 849.40 229.27 839.60 226.47 834.00 225.00 C 828.40 223.53 818.60 221.07 813.00 220.00 C 807.40 218.93 797.60 217.67 792.00 217.00 C 786.40 216.33 776.60 215.40 771.00 215.00 C 765.40 214.60 755.60 214.27 750.00 214.00 C 744.40 213.73 732.20 213.13 729.00 213.00 C 725.80 212.87 729.20 212.73 726.00 213.00 Z M 735.00 263.00 C 736.60 262.87 740.13 262.13 742.00 262.00 C 743.87 261.87 747.13 261.87 749.00 262.00 C 750.87 262.13 754.13 262.87 756.00 263.00 C 757.87 263.13 761.13 263.00 763.00 263.00 C 764.87 263.00 768.13 262.87 770.00 263.00 C 771.87 263.13 775.13 263.60 777.00 264.00 C 778.87 264.40 782.13 265.60 784.00 266.00 C 785.87 266.40 789.13 266.73 791.00 267.00 C 792.87 267.27 796.13 267.47 798.00 268.00 C 799.87 268.53 803.13 270.33 805.00 271.00 C 806.87 271.67 810.13 272.33 812.00 273.00 C 813.87 273.67 817.13 275.07 819.00 276.00 C 820.87 276.93 824.13 279.07 826.00 280.00 C 827.87 280.93 831.13 281.93 833.00 283.00 C 834.87 284.07 838.27 286.67 840.00 288.00 C 841.73 289.33 844.27 291.67 846.00 293.00 C 847.73 294.33 851.27 296.53 853.00 298.00 C 854.73 299.47 857.27 302.27 859.00 304.00 C 860.73 305.73 864.27 309.13 866.00 311.00 C 867.73 312.87 870.53 316.13 872.00 318.00 C 873.47 319.87 875.80 323.13 877.00 325.00 C 878.20 326.87 879.93 330.13 881.00 332.00 C 882.07 333.87 883.93 337.13 885.00 339.00 C 886.07 340.87 888.07 344.13 889.00 346.00 C 889.93 347.87 891.20 351.13 892.00 353.00 C 892.80 354.87 894.20 358.13 895.00 360.00 C 895.80 361.87 897.33 365.13 898.00 367.00 C 898.67 368.87 899.47 372.13 900.00 374.00 C 900.53 375.87 901.47 379.13 902.00 381.00 C 902.53 382.87 903.60 386.13 904.00 388.00 C 904.40 389.87 904.73 393.13 905.00 395.00 C 905.27 396.87 905.60 400.13 906.00 402.00 C 906.40 403.87 907.73 407.13 908.00 409.00 C 908.27 410.87 908.00 414.13 908.00 416.00 C 908.00 417.87 907.87 421.13 908.00 423.00 C 908.13 424.87 908.73 428.13 909.00 430.00 C 909.27 431.87 909.87 435.13 910.00 437.00 C 910.13 438.87 910.00 442.13 910.00 444.00 C 910.00 445.87 910.00 449.13 910.00 451.00 C 910.00 452.87 910.00 456.13 910.00 458.00 C 910.00 459.87 910.00 463.13 910.00 465.00 C 910.00 466.87 910.00 470.13 910.00 472.00 C 910.00 473.87 910.00 477.13 910.00 479.00 C 910.00 480.87 910.00 484.13 910.00 486.00 C 910.00 487.87 910.00 491.13 910.00 493.00 C 910.00 494.87 910.00 498.13 910.00 500.00 C 910.00 501.87 910.00 505.13 910.00 507.00 C 910.00 508.87 910.00 512.13 910.00 514.00 C 910.00 515.87 910.00 519.13 910.00 521.00 C 910.00 522.87 910.00 526.13 910.00 528.00 C 910.00 529.87 910.00 533.13 910.00 535.00 C 910.00 536.87 910.00 540.13 910.00 542.00 C 910.00 543.87 910.00 547.13 910.00 549.00 C 910.00 550.87 910.00 554.13 910.00 556.00 C 910.00 557.87 910.00 561.13 910.00 563.00 C 910.00 564.87 910.00 568.13 910.00 570.00 C 910.00 571.87 910.00 575.13 910.00 577.00 C 910.00 578.87 910.00 582.13 910.00 584.00 C 910.00 585.87 910.00 589.13 910.00 591.00 C 910.00 592.87 910.00 596.13 910.00 598.00 C 910.00 599.87 910.00 603.13 910.00 605.00 C 910.00 606.87 910.13 610.13 910.00 612.00 C 909.87 613.87 909.27 617.13 909.00 619.00 C 908.73 620.87 908.13 624.13 908.00 626.00 C 907.87 627.87 908.27 631.13 908.00 633.00 C 907.73 634.87 906.40 638.13 906.00 640.00 C 905.60 641.87 905.27 645.13 905.00 647.00 C 904.73 648.87 904.40 652.13 904.00 654.00 C 903.60 655.87 902.53 659.13 902.00 661.00 C 901.47 662.87 900.67 666.13 900.00 668.00 C 899.33 669.87 897.67 673.13 897.00 675.00 C 896.33 676.87 895.53 680.13 895.00 682.00 C 894.47 683.87 893.67 687.13 893.00 689.00 C 892.33 690.87 890.80 694.13 890.00 696.00 C 889.20 697.87 888.07 701.13 887.00 703.00 C 885.93 704.87 883.07 708.13 882.00 710.00 C 880.93 711.87 880.07 715.13 879.00 717.00 C 877.93 718.87 875.47 722.13 874.00 724.00 C 872.53 725.87 869.47 729.13 868.00 731.00 C 866.53 732.87 864.60 736.13 863.00 738.00 C 861.40 739.87 857.87 743.13 856.00 745.00 C 854.13 746.87 850.87 750.27 849.00 752.00 C 847.13 753.73 843.87 756.40 842.00 758.00 C 840.13 759.60 836.87 762.53 835.00 764.00 C 833.13 765.47 829.87 767.80 828.00 769.00 C 826.13 770.20 822.87 771.93 821.00 773.00 C 819.13 774.07 815.87 775.93 814.00 777.00 C 812.13 778.07 808.87 779.93 807.00 781.00 C 805.13 782.07 801.87 784.07 800.00 785.00 C 798.13 785.93 794.87 787.33 793.00 788.00 C 791.13 788.67 787.87 789.33 786.00 790.00 C 784.13 790.67 780.87 792.33 779.00 793.00 C 777.13 793.67 773.87 794.47 772.00 795.00 C 770.13 795.53 766.87 796.47 765.00 797.00 C 763.13 797.53 759.87 798.60 758.00 799.00 C 756.13 799.40 752.87 799.73 751.00 800.00 C 749.13 800.27 745.87 800.60 744.00 801.00 C 742.13 801.40 738.87 802.60 737.00 803.00 C 735.13 803.40 731.87 803.87 730.00 804.00 C 728.13 804.13 724.87 803.87 723.00 804.00 C 721.13 804.13 717.87 804.87 716.00 805.00 C 714.13 805.13 710.87 804.87 709.00 805.00 C 707.13 805.13 703.87 805.73 702.00 806.00 C 700.13 806.27 696.87 806.73 695.00 807.00 C 693.13 807.27 689.87 807.87 688.00 808.00 C 686.13 808.13 682.87 808.00 681.00 808.00 C 679.13 808.00 675.87 808.00 674.00 808.00 C 672.13 808.00 668.87 807.87 667.00 808.00 C 665.13 808.13 661.87 808.87 660.00 809.00 C 658.13 809.13 654.87 809.00 653.00 809.00 C 651.13 809.00 647.87 809.00 646.00 809.00 C 644.13 809.00 640.87 809.00 639.00 809.00 C 637.13 809.00 633.87 809.00 632.00 809.00 C 630.13 809.00 626.87 809.00 625.00 809.00 C 623.13 809.00 619.33 809.93 618.00 809.00 C 616.67 808.07 615.40 803.87 615.00 802.00 C 614.60 800.13 615.00 796.87 615.00 795.00 C 615.00 793.13 615.00 789.87 615.00 788.00 C 615.00 786.13 615.00 782.87 615.00 781.00 C 615.00 779.13 615.00 775.87 615.00 774.00 C 615.00 772.13 615.00 768.87 615.00 767.00 C 615.00 765.13 615.00 761.87 615.00 760.00 C 615.00 758.13 615.00 754.87 615.00 753.00 C 615.00 751.13 615.00 747.87 615.00 746.00 C 615.00 744.13 615.00 740.87 615.00 739.00 C 615.00 737.13 615.00 733.87 615.00 732.00 C 615.00 730.13 615.00 726.87 615.00 725.00 C 615.00 723.13 615.00 719.87 615.00 718.00 C 615.00 716.13 615.00 712.87 615.00 711.00 C 615.00 709.13 615.00 705.87 615.00 704.00 C 615.00 702.13 615.00 698.87 615.00 697.00 C 615.00 695.13 615.00 691.87 615.00 690.00 C 615.00 688.13 615.00 684.87 615.00 683.00 C 615.00 681.13 615.00 677.87 615.00 676.00 C 615.00 674.13 615.00 670.87 615.00 669.00 C 615.00 667.13 615.00 663.87 615.00 662.00 C 615.00 660.13 615.00 656.87 615.00 655.00 C 615.00 653.13 615.00 649.87 615.00 648.00 C 615.00 646.13 615.00 642.87 615.00 641.00 C 615.00 639.13 615.00 635.87 615.00 634.00 C 615.00 632.13 615.00 628.87 615.00 627.00 C 615.00 625.13 615.00 621.87 615.00 620.00 C 615.00 618.13 615.00 614.87 615.00 613.00 C 615.00 611.13 615.00 607.87 615.00 606.00 C 615.00 604.13 615.00 600.87 615.00 599.00 C 615.00 597.13 615.00 593.87 615.00 592.00 C 615.00 590.13 615.00 586.87 615.00 585.00 C 615.00 583.13 615.00 579.87 615.00 578.00 C 615.00 576.13 615.00 572.87 615.00 571.00 C 615.00 569.13 615.00 565.87 615.00 564.00 C 615.00 562.13 615.00 558.87 615.00 557.00 C 615.00 555.13 615.00 551.87 615.00 550.00 C 615.00 548.13 615.00 544.87 615.00 543.00 C 615.00 541.13 615.00 537.87 615.00 536.00 C 615.00 534.13 615.00 530.87 615.00 529.00 C 615.00 527.13 615.00 523.87 615.00 522.00 C 615.00 520.13 615.00 516.87 615.00 515.00 C 615.00 513.13 615.00 509.87 615.00 508.00 C 615.00 506.13 615.00 502.87 615.00 501.00 C 615.00 499.13 615.00 495.87 615.00 494.00 C 615.00 492.13 615.00 488.87 615.00 487.00 C 615.00 485.13 615.00 481.87 615.00 480.00 C 615.00 478.13 615.00 474.87 615.00 473.00 C 615.00 471.13 615.00 467.87 615.00 466.00 C 615.00 464.13 615.00 460.87 615.00 459.00 C 615.00 457.13 615.00 453.87 615.00 452.00 C 615.00 450.13 615.00 446.87 615.00 445.00 C 615.00 443.13 615.00 439.87 615.00 438.00 C 615.00 436.13 615.00 432.87 615.00 431.00 C 615.00 429.13 615.00 425.87 615.00 424.00 C 615.00 422.13 615.00 418.87 615.00 417.00 C 615.00 415.13 615.00 411.87 615.00 410.00 C 615.00 408.13 615.00 404.87 615.00 403.00 C 615.00 401.13 615.00 397.87 615.00 396.00 C 615.00 394.13 615.00 390.87 615.00 389.00 C 615.00 387.13 615.00 383.87 615.00 382.00 C 615.00 380.13 615.00 376.87 615.00 375.00 C 615.00 373.13 615.00 369.87 615.00 368.00 C 615.00 366.13 615.00 362.87 615.00 361.00 C 615.00 359.13 614.87 355.87 615.00 354.00 C 615.13 352.13 615.73 348.87 616.00 347.00 C 616.27 345.13 616.73 341.87 617.00 340.00 C 617.27 338.13 617.47 334.87 618.00 333.00 C 618.53 331.13 620.20 327.87 621.00 326.00 C 621.80 324.13 623.07 320.87 624.00 319.00 C 624.93 317.13 626.80 313.87 628.00 312.00 C 629.20 310.13 631.40 306.87 633.00 305.00 C 634.60 303.13 638.13 299.73 640.00 298.00 C 641.87 296.27 645.27 293.47 647.00 292.00 C 648.73 290.53 651.27 288.33 653.00 287.00 C 654.73 285.67 658.13 283.07 660.00 282.00 C 661.87 280.93 665.13 279.93 667.00 279.00 C 668.87 278.07 672.13 275.93 674.00 275.00 C 675.87 274.07 679.13 272.67 681.00 272.00 C 682.87 271.33 686.13 270.53 688.00 270.00 C 689.87 269.47 693.13 268.53 695.00 268.00 C 696.87 267.47 700.13 266.40 702.00 266.00 C 703.87 265.60 707.13 265.27 709.00 265.00 C 710.87 264.73 714.13 264.27 716.00 264.00 C 717.87 263.73 721.13 263.13 723.00 263.00 C 724.87 262.87 728.40 263.00 730.00 263.00 C 731.60 263.00 733.40 263.13 735.00 263.00 Z"/>
  </g>
</svg>
